<svg xmlns="http://www.w3.org/2000/svg" viewBox="0 0 64 64">
  <defs>
    <radialGradient id="pcSun" cx="38%" cy="32%" r="55%">
      <stop offset="0%" stop-color="#ffffff"/>
      <stop offset="40%" stop-color="#fff8c8"/>
      <stop offset="75%" stop-color="#ffd030"/>
      <stop offset="100%" stop-color="#e07818"/>
    </radialGradient>
  </defs>
  <rect width="64" height="64" fill="none"/>
  <path fill="#98c8f8" opacity="0.2" d="M0 48h64v16H0z"/>
  <circle cx="20" cy="18" r="12" fill="#ffe878" opacity="0.2"/>
  <circle cx="20" cy="18" r="10" fill="url(#pcSun)"/>
  <ellipse cx="17" cy="15" rx="5" ry="4" fill="#fffef8" opacity="0.85"/>
  <g shape-rendering="crispEdges">
    <path fill="#f8e060" d="M8 10h2v2H8zM26 6h2v2h-2zM6 20h2v2H6z"/>
    <path fill="#182848" d="M14 36h38v3H14z"/>
    <path fill="#283858" d="M12 24h10v14H12zM22 20h14v10H22zM34 22h14v12H34zM46 24h10v12H46z"/>
    <path fill="#384878" d="M14 22h8v10H14zM24 18h12v8H24zM36 20h12v10H36zM48 22h8v10H48z"/>
    <path fill="#5878b8" d="M16 20h10v8H16zM26 16h14v8H26zM38 18h12v8H38z"/>
    <path fill="#88a8e0" d="M18 18h8v6H18zM28 14h12v6H28zM40 16h10v6H40z"/>
    <path fill="#b8d0f8" d="M20 16h6v4H20zM30 12h10v4H30zM42 14h8v4H42z"/>
    <path fill="#e8f4ff" d="M22 14h4v3H22zM32 10h8v3H32zM44 12h4v3H44z"/>
    <path fill="#6878a8" d="M18 34h4v2h-4zM38 32h4v2h-4z"/>
    <path fill="#a8c8f0" d="M16 38h3v2h-3zM42 38h3v2h-3zM28 40h4v1H28z"/>
  </g>
</svg>
