<svg xmlns="http://www.w3.org/2000/svg" viewBox="0 0 64 64">
  <defs>
    <radialGradient id="skyGlow" cx="50%" cy="80%" r="70%">
      <stop offset="0%" stop-color="#88b8f8" stop-opacity="0.35"/>
      <stop offset="100%" stop-color="#88b8f8" stop-opacity="0"/>
    </radialGradient>
    <radialGradient id="snesSun" cx="40%" cy="36%" r="58%">
      <stop offset="0%" stop-color="#ffffff"/>
      <stop offset="22%" stop-color="#fffce8"/>
      <stop offset="48%" stop-color="#ffe858"/>
      <stop offset="78%" stop-color="#ffb020"/>
      <stop offset="100%" stop-color="#c86810"/>
    </radialGradient>
  </defs>
  <rect width="64" height="64" fill="url(#skyGlow)"/>
  <g shape-rendering="crispEdges" opacity="0.9">
    <path fill="#e8c848" d="M31 0h2v8h-2zM31 56h2v8h-2zM0 31h8v2H0zM56 31h8v2h-8z"/>
    <path fill="#f8e060" d="M29 2h6v6h-6zM29 56h6v6h-6zM2 29h6v6H2zM56 29h6v6h-6z"/>
    <path fill="#fff0a8" d="M12 10h3v3h-3zM49 10h3v3h-3zM10 49h3v3h-3zM51 49h3v3h-3z"/>
    <path fill="#ffe878" d="M18 6h4v4h-4zM42 6h4v4h-4zM6 18h4v4H6zM54 18h4v4h-4zM6 42h4v4H6zM54 42h4v4h-4z"/>
    <path fill="#f8d868" d="M8 8h3v3H8zM53 8h3v3h-3zM8 53h3v3H8zM53 53h3v3h-3z"/>
    <path fill="#ffd848" d="M22 14h2v2h-2zM40 14h2v2h-2zM14 22h2v2h-2zM48 22h2v2h-2zM14 40h2v2h-2zM48 40h2v2h-2zM22 48h2v2h-2zM40 48h2v2h-2z"/>
    <path fill="#fff8c0" d="M16 16h2v2h-2zM46 16h2v2h-2zM16 46h2v2h-2zM46 46h2v2h-2z"/>
  </g>
  <circle cx="32" cy="30" r="15" fill="#ffe878" opacity="0.25"/>
  <circle cx="32" cy="30" r="13" fill="url(#snesSun)"/>
  <ellipse cx="27" cy="26" rx="7" ry="6" fill="#fffef0" opacity="0.9"/>
  <ellipse cx="25" cy="24" rx="3" ry="2" fill="#ffffff" opacity="0.95"/>
  <g shape-rendering="crispEdges">
    <path fill="#d07818" d="M36 38h8v3h-8zM38 40h5v2h-5z"/>
    <path fill="#f0a830" d="M37 37h3v2h-3z"/>
    <path fill="#88c8f8" d="M4 54h56v2H4zM8 58h48v1H8z"/>
  </g>
</svg>
